<svg width="31" height="30" viewBox="0 0 31 30" fill="none" xmlns="http://www.w3.org/2000/svg">
<path fill-rule="evenodd" clip-rule="evenodd" d="M14.861 0C6.64065 0.0749848 0 6.76199 0 15C0 23.2378 6.64036 29.9247 14.8604 30C14.6833 23.3671 14.5322 20.3366 12.4813 17.9053C10.3629 15.5464 7.72184 15.3856 1.93588 15.1711V14.8495C7.72184 14.6457 10.3629 14.4742 12.4813 12.1153C14.5343 9.68149 14.6743 6.64725 14.861 0ZM15.141 5.76536e-06C15.3183 6.64726 15.4676 9.68149 17.5206 12.1153C19.6391 14.4742 22.2801 14.635 28.066 14.8495V15.1711C22.2801 15.3748 19.6391 15.5464 17.5206 17.9053C15.4698 20.3366 15.3279 23.3671 15.1415 30C23.3613 29.9244 30.0013 23.2376 30.0013 15C30.0013 6.7622 23.361 0.0753268 15.141 5.76536e-06Z" fill="black"/>
</svg>
