<svg width="32" height="29" viewBox="0 0 32 29" fill="none" xmlns="http://www.w3.org/2000/svg">
<path fill-rule="evenodd" clip-rule="evenodd" d="M2.13009 12.5028C10.4795 8.42465 16.0378 5.71481 18.8289 4.40014C26.7728 0.670753 28.4427 0.0268301 29.5162 0C29.7547 0 30.2796 0.0536606 30.6374 0.375622C30.9237 0.643923 30.9952 0.992715 31.0429 1.26102C31.0907 1.52932 31.1384 2.09275 31.0907 2.52203C30.6613 7.61975 28.8005 19.9884 27.8463 25.6764C27.4408 28.0911 26.6535 28.896 25.8902 28.9765C24.2203 29.1375 22.9559 27.7423 21.3576 26.5618C18.8289 24.7105 17.4215 23.5568 14.9643 21.7324C12.1255 19.6396 13.9624 18.4859 15.5846 16.6078C16.014 16.1249 23.3376 8.61246 23.4808 7.94171C23.5046 7.86122 23.5046 7.53926 23.3376 7.37828C23.1706 7.2173 22.9321 7.27096 22.7412 7.32462C22.4788 7.37828 18.4711 10.3832 10.6704 16.3127C9.52529 17.1981 8.4995 17.6274 7.56914 17.6005C6.54335 17.5737 4.58721 16.9566 3.10816 16.42C1.319 15.7761 -0.112327 15.4273 0.00695081 14.3004C0.0785173 13.7102 0.794182 13.1199 2.13009 12.5028Z" fill="black"/>
</svg>
